<svg xmlns="http://www.w3.org/2000/svg" width="1200" height="680" viewBox="0 0 1200 680">
  <style>
    .box { fill:#111827; stroke:#60a5fa; stroke-width:2; rx:10; }
    .txt { fill:#e5e7eb; font: 16px sans-serif; }
    .title { fill:#93c5fd; font: 700 22px sans-serif; }
    .arrow { stroke:#9ca3af; stroke-width:2.5; marker-end:url(#m); }
  </style>
  <defs>
    <marker id="m" markerWidth="10" markerHeight="10" refX="8" refY="3" orient="auto">
      <path d="M0,0 L0,6 L9,3 z" fill="#9ca3af"/>
    </marker>
  </defs>

  <text x="40" y="40" class="title">TrustHire — Distributed Architecture</text>

  <rect class="box" x="70" y="90" width="200" height="70"/><text class="txt" x="110" y="132">User / Browser</text>
  <rect class="box" x="330" y="90" width="240" height="70"/><text class="txt" x="370" y="132">Cloudflare CDN + WAF</text>
  <rect class="box" x="630" y="90" width="220" height="70"/><text class="txt" x="690" y="132">Vercel Frontend</text>

  <rect class="box" x="420" y="230" width="220" height="70"/><text class="txt" x="458" y="272">API Gateway / LB</text>
  <rect class="box" x="420" y="350" width="220" height="80"/><text class="txt" x="455" y="394">FastAPI Backend</text><text class="txt" x="462" y="416">(Auto Scaling)</text>

  <rect class="box" x="120" y="520" width="220" height="80"/><text class="txt" x="155" y="565">PostgreSQL Cluster</text>
  <rect class="box" x="390" y="520" width="220" height="80"/><text class="txt" x="450" y="565">Redis Cache</text>
  <rect class="box" x="660" y="520" width="220" height="80"/><text class="txt" x="700" y="565">Object Storage</text>
  <rect class="box" x="930" y="520" width="220" height="80"/><text class="txt" x="972" y="565">Prom/Grafana/Loki</text>

  <line class="arrow" x1="270" y1="125" x2="330" y2="125"/>
  <line class="arrow" x1="570" y1="125" x2="630" y2="125"/>
  <line class="arrow" x1="740" y1="160" x2="560" y2="230"/>
  <line class="arrow" x1="530" y1="300" x2="530" y2="350"/>

  <line class="arrow" x1="500" y1="430" x2="230" y2="520"/>
  <line class="arrow" x1="520" y1="430" x2="500" y2="520"/>
  <line class="arrow" x1="540" y1="430" x2="770" y2="520"/>
  <line class="arrow" x1="560" y1="430" x2="1040" y2="520"/>
</svg>
